<svg height="512pt" viewBox="-1 0 512 512.00013" width="512pt" xmlns="http://www.w3.org/2000/svg"><path d="m501.480469 293.472656c-7.472657-3.578125-16.429688-.421875-20.003907 7.050782-8.429687 17.601562-26.671874 28.976562-46.472656 28.976562-19.800781 0-38.042968-11.375-46.472656-28.976562-2.492188-5.210938-7.753906-8.523438-13.527344-8.523438-5.773437 0-11.035156 3.3125-13.527344 8.523438-8.429687 17.601562-26.671874 28.976562-46.472656 28.976562-19.800781 0-38.042968-11.375-46.472656-28.976562-2.492188-5.210938-7.753906-8.523438-13.527344-8.523438-5.773437 0-11.035156 3.3125-13.527344 8.523438-8.429687 17.601562-26.671874 28.976562-46.472656 28.976562-19.800781 0-38.042968-11.375-46.472656-28.976562-2.492188-5.210938-7.753906-8.523438-13.527344-8.523438-5.773437 0-11.035156 3.3125-13.527344 8.523438-8.429687 17.601562-26.671874 28.976562-46.472656 28.976562-19.800781 0-38.042968-11.375-46.472656-28.976562-3.578125-7.472657-12.535156-10.628907-20.003906-7.054688-7.472656 3.578125-10.628906 12.535156-7.050782 20.007812 13.382813 27.960938 42.246094 46.023438 73.527344 46.023438 23.058594 0 44.800782-9.8125 60-26.171875 15.199219 16.355469 36.941406 26.171875 60 26.171875s44.800782-9.8125 60-26.171875c15.199219 16.355469 36.941406 26.171875 60 26.171875s44.800782-9.8125 60-26.171875c15.199219 16.355469 36.941406 26.171875 60 26.171875 31.28125 0 60.144532-18.0625 73.527344-46.023438 3.578125-7.46875.421875-16.425781-7.050781-20.003906zm0 0"/><path d="m501.480469 369.722656c-7.472657-3.578125-16.429688-.421875-20.003907 7.050782-8.429687 17.605468-26.671874 28.976562-46.472656 28.976562-19.800781 0-38.042968-11.371094-46.472656-28.976562-2.492188-5.207032-7.753906-8.523438-13.527344-8.523438-5.773437 0-11.035156 3.316406-13.527344 8.523438-8.429687 17.605468-26.671874 28.976562-46.472656 28.976562-19.800781 0-38.042968-11.371094-46.472656-28.976562-2.492188-5.207032-7.753906-8.523438-13.527344-8.523438-5.773437 0-11.035156 3.316406-13.527344 8.523438-8.429687 17.605468-26.671874 28.976562-46.472656 28.976562-19.800781 0-38.042968-11.371094-46.472656-28.976562-2.492188-5.207032-7.753906-8.523438-13.527344-8.523438-5.773437 0-11.035156 3.316406-13.527344 8.523438-8.429687 17.601562-26.671874 28.976562-46.472656 28.976562-19.800781 0-38.042968-11.375-46.472656-28.976562-3.578125-7.472657-12.535156-10.632813-20.003906-7.054688-7.472656 3.578125-10.628906 12.535156-7.050782 20.007812 13.382813 27.960938 42.246094 46.023438 73.527344 46.023438 23.058594 0 44.800782-9.8125 60-26.171875 15.199219 16.355469 36.941406 26.171875 60 26.171875s44.800782-9.8125 60-26.171875c15.199219 16.355469 36.941406 26.171875 60 26.171875s44.800782-9.8125 60-26.171875c15.199219 16.355469 36.941406 26.171875 60 26.171875 31.28125 0 60.144532-18.0625 73.527344-46.023438 3.578125-7.46875.421875-16.425781-7.050781-20.003906zm0 0"/><path d="m501.480469 445.972656c-7.472657-3.578125-16.429688-.421875-20.003907 7.050782-8.429687 17.601562-26.671874 28.976562-46.472656 28.976562-19.800781 0-38.042968-11.375-46.472656-28.976562-2.492188-5.210938-7.753906-8.523438-13.527344-8.523438-5.773437 0-11.035156 3.3125-13.527344 8.523438-8.429687 17.601562-26.671874 28.976562-46.472656 28.976562-19.800781 0-38.042968-11.375-46.472656-28.976562-2.492188-5.210938-7.753906-8.523438-13.527344-8.523438-5.773437 0-11.035156 3.3125-13.527344 8.523438-8.429687 17.601562-26.671874 28.976562-46.472656 28.976562-19.800781 0-38.042968-11.375-46.472656-28.976562-2.492188-5.210938-7.753906-8.523438-13.527344-8.523438-5.773437 0-11.035156 3.3125-13.527344 8.523438-8.429687 17.601562-26.671874 28.976562-46.472656 28.976562-19.800781 0-38.042968-11.375-46.472656-28.976562-3.578125-7.472657-12.535156-10.632813-20.003906-7.054688-7.472656 3.578125-10.628906 12.535156-7.050782 20.007812 13.382813 27.960938 42.246094 46.023438 73.527344 46.023438 23.058594 0 44.800782-9.8125 60-26.171875 15.199219 16.359375 36.941406 26.171875 60 26.171875s44.800782-9.8125 60-26.171875c15.199219 16.359375 36.941406 26.171875 60 26.171875s44.800782-9.8125 60-26.171875c15.199219 16.359375 36.941406 26.171875 60 26.171875 31.28125 0 60.144532-18.0625 73.527344-46.023438 3.578125-7.46875.421875-16.425781-7.050781-20.003906zm0 0"/><path d="m121.003906 137v73.789062l-24.394531-24.394531c-5.855469-5.859375-15.355469-5.859375-21.210937 0-5.859376 5.855469-5.859376 15.355469 0 21.210938l50 50c2.925781 2.929687 6.765624 4.394531 10.605468 4.394531s7.675782-1.464844 10.605469-4.394531l50-50c5.859375-5.855469 5.859375-15.355469 0-21.210938-5.855469-5.859375-15.355469-5.859375-21.210937 0l-24.394532 24.394531v-73.789062c0-8.285156-6.714844-15-15-15s-15 6.714844-15 15zm0 0"/><path d="m25.609375 75.605469 24.394531-24.394531v73.789062c0 8.285156 6.714844 15 15 15s15-6.714844 15-15v-73.789062l24.394532 24.394531c2.925781 2.929687 6.765624 4.394531 10.605468 4.394531s7.675782-1.464844 10.605469-4.394531c5.859375-5.855469 5.859375-15.355469 0-21.210938l-50-50c-5.855469-5.859375-15.355469-5.859375-21.210937 0l-50 50c-5.859376 5.855469-5.859376 15.355469 0 21.210938 5.855468 5.859375 15.355468 5.859375 21.210937 0zm0 0"/><path d="m395.058594 229.953125c29.449218 0 58.898437-11.210937 81.316406-33.628906 44.839844-44.839844 44.839844-117.796875 0-162.636719-32.292969-32.292969-80.660156-42.417969-123.21875-25.796875-6.636719 2.59375-10.53125 9.496094-9.324219 16.515625 1.207031 7.023438 7.1875 12.226562 14.3125 12.449219 10.207031.320312 19.800781 4.46875 27.015625 11.683593 7.554688 7.554688 11.714844 17.597657 11.714844 28.28125 0 10.6875-4.160156 20.730469-11.714844 28.285157-15.597656 15.597656-40.972656 15.597656-56.570312 0-7.210938-7.210938-11.359375-16.804688-11.679688-27.015625-.226562-7.121094-5.425781-13.101563-12.449218-14.3125-7.023438-1.203125-13.925782 2.6875-16.515626 9.324218-16.625 42.558594-6.5 90.925782 25.796876 123.21875 22.417968 22.421876 51.867187 33.632813 81.316406 33.632813zm11.3125-103.632813c13.222656-13.222656 20.503906-30.800781 20.503906-49.5 0-16.859374-5.921875-32.808593-16.78125-45.472656 16.738281 3.011719 32.539062 11.027344 45.066406 23.554688 33.140625 33.140625 33.140625 87.066406 0 120.207031-16.574218 16.574219-38.335937 24.859375-60.105468 24.855469-21.761719 0-43.53125-8.285156-60.101563-24.855469-12.53125-12.527344-20.542969-28.332031-23.554687-45.066406 27.472656 23.507812 68.980468 22.265625 94.972656-3.722657zm0 0"/></svg>